<svg xmlns="http://www.w3.org/2000/svg" viewBox="0 0 1396.51 310.04"><defs><style>.cls-1{fill:#fff;}.cls-2{fill:#c9c9c9;}.cls-3{fill:#b2b2b2;}.cls-4{fill:#efefef;}</style></defs><title>Asset 5</title><g id="Layer_2" data-name="Layer 2"><g id="Layer_1-2" data-name="Layer 1"><path class="cls-1" d="M450.41,239.77H416.22V220.39q-9.14,12.92-21.35,19.22t-28,6.3q-31.66,0-49.86-21.66t-18.2-59.32q0-35.76,18.59-57.74t48.53-22q18.27,0,31.27,7.64a44.76,44.76,0,0,1,19,22V90.41h34.19Zm-33.25-75.16q0-23.16-10.79-36.08T376.2,115.62q-19.38,0-30.49,13.31t-11.1,36.95q0,23.79,10.71,36.71t30.25,12.91q18.44,0,30-14T417.16,164.61Z"/><path class="cls-1" d="M523.35,310H488.22l41-83.19L474.36,90.41h37.81l27.41,77.36q2.37,7.08,4.18,14.41c1.2,4.89,2.18,9.85,2.91,14.89q2.05-7.87,9.77-25l.79-1.89L594.1,90.41h37Z"/><path class="cls-1" d="M649.71,310V90.41H683.9v24.42a45,45,0,0,1,19.15-21.9q13.14-7.73,31.43-7.72,29.78,0,48.29,22t18.51,57.74q0,37.65-18.2,59.32t-49.86,21.66q-15.76,0-28-6.3T683.9,220.39V310ZM682.8,164.61q0,23.16,11.58,37t30.49,13.86q19.38,0,30-12.91t10.63-36.71q0-23.64-11.1-36.95t-30.49-13.31q-19.38,0-30.25,12.91T682.8,164.61Z"/><path class="cls-1" d="M1014.84,22.31a20.34,20.34,0,0,1,6.38-15A20.9,20.9,0,0,1,1036.43,1a20.75,20.75,0,0,1,21.27,21.27,21,21,0,0,1-6.15,15.36,20.39,20.39,0,0,1-15.12,6.22,20.75,20.75,0,0,1-15.21-6.38A20.76,20.76,0,0,1,1014.84,22.31Zm4.34,217.46V90.41h34.18V239.77Z"/><path class="cls-1" d="M1102.21,239.77V90.41h32.14v24.42q10.25-15.43,24.1-22.53t33.72-7.09q16.69,0,28.44,5.28A41.27,41.27,0,0,1,1239,106.16a42.76,42.76,0,0,1,5.68,14.34q1.72,8.19,1.73,28.67v90.6h-34.5V163q0-29.46-7.17-39.15t-25.45-9.69a49.6,49.6,0,0,0-21.35,4.41,35.31,35.31,0,0,0-14.73,12.45,34,34,0,0,0-5.28,13.78q-1.5,8.43-1.49,26.86v68.07Z"/><path class="cls-1" d="M1299.94,239.77V120.34h-26.16V90.41h26.16V33.85h34.19V90.41h41.38l21,14.77-21,15.16h-41.38V239.77Z"/><path class="cls-1" d="M988.8,135.54c-4.39-10.37-5.25-41.64-5.25-41.64s-30.5-.1-40.87-4.48a86.94,86.94,0,0,0-67.46,0c-10.37,4.38-40.14,6.88-40.14,6.88s-1.6,28.87-6,39.24a86.94,86.94,0,0,0,0,67.46c4.38,10.37,5.49,41.39,5.49,41.39s30.26.34,40.63,4.73a86.94,86.94,0,0,0,67.46,0c10.37-4.39,40.66-5.46,40.66-5.46s1.07-30.29,5.46-40.66a86.94,86.94,0,0,0,0-67.46Zm-79.86,93.22a59.57,59.57,0,1,1,59.57-59.57A59.57,59.57,0,0,1,908.94,228.76Z"/><polygon class="cls-2" points="920.09 180.33 944.91 133.22 908.94 169.19 920.09 180.33"/><polygon class="cls-3" points="920.09 180.33 872.97 205.16 908.94 169.19 920.09 180.33"/><polygon class="cls-1" points="897.8 158.05 944.91 133.22 908.94 169.19 897.8 158.05"/><polygon class="cls-4" points="897.8 158.05 872.97 205.16 908.94 169.19 897.8 158.05"/><path class="cls-1" d="M0,9.14H37l5.45,14.55,5.46,14.55,5.45,14.55,5.45,14.55,5.46,14.55,5.45,14.55L75.2,111l5.45,14.55c.36,1,.7,1.91,1,2.83s.68,1.85,1,2.75.65,1.78,1,2.65l.92,2.57c.3.84.59,1.66.87,2.47s.57,1.61.84,2.39l.79,2.3c.25.75.5,1.48.75,2.21l.72,2.15.69,2.11c.23.7.45,1.39.67,2.08s.44,1.37.65,2,.43,1.34.63,2,.41,1.32.61,2l.58,1.94c.2.65.38,1.28.57,1.91l1.38-4.55c.47-1.52.93-3,1.4-4.54s.94-3,1.42-4.5,1-3,1.43-4.48L100,139.4c.49-1.48,1-3,1.46-4.43s1-2.95,1.48-4.41,1-2.93,1.49-4.39c.06-.18.13-.36.19-.52s.11-.34.17-.49.11-.3.16-.44l.15-.4a3.62,3.62,0,0,1,.13-.35c0-.11.08-.21.11-.31s.07-.18.1-.26l.09-.22,5.79-15.4,5.79-15.39L122.91,77l5.78-15.4,5.79-15.4,5.79-15.39,5.79-15.4L151.85,0,158,15.69l6.11,15.7,6.1,15.69,6.11,15.69,6.1,15.69,6.1,15.7,6.11,15.69,6.1,15.69c.29.77.58,1.53.86,2.29s.57,1.52.85,2.28.56,1.53.83,2.29.56,1.52.83,2.28l.81,2.29.8,2.28.78,2.28.78,2.29c.25.76.51,1.52.76,2.28l.75,2.29c.25.77.49,1.54.74,2.3l.72,2.3c.24.77.48,1.54.71,2.31s.47,1.54.7,2.31.46,1.54.69,2.32.45,1.54.68,2.32c.13-.59.27-1.19.41-1.8s.29-1.22.44-1.84.32-1.24.48-1.88.34-1.28.52-1.93.36-1.3.55-2,.38-1.33.58-2,.41-1.37.62-2.06.43-1.4.65-2.11.46-1.43.7-2.17.48-1.5.74-2.28.52-1.56.79-2.37.55-1.63.84-2.47l.89-2.57c.31-.87.62-1.76.94-2.67s.66-1.83,1-2.77l1-2.86,5.42-14.67L235,97.15l5.42-14.67,5.41-14.67,5.42-14.67,5.41-14.67,5.42-14.66,5.41-14.67H900L917.9,21.85,900,35.93l-605.23.15-34.61,92.85L249,158.88l-11.16,30-11.17,29.95-11.16,29.95-6.58-16.45-6.57-16.44-6.58-16.44L189.18,183l-6.57-16.44L176,150.08l-6.58-16.44-6.57-16.44c-.29-.74-.58-1.47-.86-2.2l-.84-2.17c-.27-.72-.55-1.44-.81-2.15s-.54-1.42-.8-2.13-.52-1.41-.78-2.1-.51-1.4-.76-2.09l-.74-2.06c-.24-.68-.48-1.36-.71-2s-.47-1.35-.7-2-.46-1.33-.68-2-.45-1.31-.66-2-.43-1.29-.64-1.93-.42-1.28-.62-1.91-.41-1.26-.6-1.88-.39-1.24-.58-1.85-.38-1.22-.56-1.83c-.23.78-.45,1.55-.67,2.31s-.45,1.52-.67,2.27-.45,1.49-.67,2.23-.45,1.47-.67,2.19-.45,1.45-.67,2.16-.45,1.42-.67,2.12-.45,1.4-.67,2.08-.45,1.37-.67,2-.45,1.35-.67,2-.45,1.33-.68,2l-.68,2-.69,2-.69,1.92c-.23.64-.46,1.28-.7,1.91s-.46,1.26-.7,1.88-.47,1.25-.7,1.87l-6.46,16.36-6.46,16.36-6.46,16.36-6.46,16.37-6.46,16.36L101.92,216l-6.46,16.36L89,248.73,77.87,218.78,66.75,188.83l-11.13-30L44.5,128.93,33.37,99,22.25,69,11.12,39.08Z"/></g></g></svg>