<svg id="Layer_1" data-name="Layer 1" xmlns="http://www.w3.org/2000/svg" viewBox="0 0 1024 1024"><defs><style>.cls-1{fill:#fff;}.cls-2{fill:#f43838;}.cls-3{fill:#901f1f;}.cls-4{fill:#721d1d;}.cls-5{fill:#d02d2d;}</style></defs><title>wp-icon</title><circle class="cls-1" cx="512.02" cy="511" r="449.97"/><path class="cls-2" d="M983.78,312.57c-25.9-61.23-31-245.87-31-245.87s-180.1-.59-241.33-26.48a513.43,513.43,0,0,0-398.41,0C251.79,66.11,76,80.84,76,80.84s-9.44,170.5-35.34,231.73a513.43,513.43,0,0,0,0,398.41C66.57,772.21,73.1,955.42,73.1,955.42s178.69,2,239.92,27.91a513.43,513.43,0,0,0,398.41,0c61.23-25.9,240.1-32.24,240.1-32.24S957.88,772.21,983.78,711a513.43,513.43,0,0,0,0-398.41ZM512.19,928.09C282,928.09,95.38,741.47,95.38,511.28S282,94.46,512.19,94.46,929,281.08,929,511.28,742.39,928.09,512.19,928.09Z"/><polygon class="cls-3" points="599.33 598.42 793.52 229.95 512.19 511.27 599.33 598.42"/><polygon class="cls-4" points="599.33 598.42 230.86 792.6 512.19 511.27 599.33 598.42"/><polygon class="cls-2" points="425.05 424.13 793.52 229.95 512.19 511.27 425.05 424.13"/><polygon class="cls-5" points="425.05 424.13 230.86 792.6 512.19 511.27 425.05 424.13"/></svg>