<svg xmlns="http://www.w3.org/2000/svg" viewBox="0 0 1400 301.32"><defs><style>.cls-1{fill:#fff;}.cls-2{fill:#f2f2f2;}.cls-3{fill:#c9c9c9;}.cls-4{fill:#b2b2b2;}.cls-5{fill:#efefef;}</style></defs><title>wp-type</title><g id="Layer_2" data-name="Layer 2"><g id="Layer_1-2" data-name="Layer 1"><path class="cls-1" d="M0,8.88H67.66l21.2,56.57L110.07,122c1.38,3.72,2.64,7.22,3.81,10.49s2.21,6.3,3.15,9.1,1.83,5.53,2.66,8.16,1.6,5.17,2.32,7.62q2.68-8.88,5.47-17.57t5.71-17.19c.25-.71.47-1.31.65-1.8l.42-1.11,22.51-59.86L179.27,0,203,61l23.74,61q1.68,4.44,3.27,8.88t3.08,8.88q1.5,4.44,2.89,8.92t2.7,9c.51-2.29,1.11-4.71,1.8-7.23s1.46-5.17,2.33-7.93,1.86-5.76,3-9,2.37-6.79,3.75-10.56l21.05-57,21-57h68L319.79,30.73l-78.66,211-25.57-63.92L190,113.91c-1.12-2.86-2.2-5.66-3.22-8.4s-2-5.43-2.9-8.06-1.79-5.18-2.61-7.67-1.58-4.91-2.29-7.25q-1.31,4.52-2.61,8.74c-.86,2.82-1.73,5.55-2.6,8.17s-1.75,5.2-2.64,7.72-1.8,5-2.72,7.37L127.87,217.22l-9.69,24.54L39.64,30.32Z"/><path class="cls-1" d="M469.41,233H436.19V214.2q-8.88,12.56-20.75,18.68T388.26,239Q357.5,239,339.81,218T322.12,160.3q0-34.74,18.07-56.11t47.16-21.36q17.76,0,30.39,7.43a43.51,43.51,0,0,1,18.45,21.36V87.88h33.22Zm-32.3-73q0-22.51-10.49-35.06T397.3,112.38q-18.84,0-29.63,12.94t-10.79,35.9q0,23.13,10.41,35.68t29.4,12.55q17.91,0,29.16-13.62T437.11,160Z"/><path class="cls-1" d="M540.3,301.32H506.16L546,220.48,492.68,87.88h36.75l26.64,75.18q2.29,6.88,4.06,14T563,191.54q2-7.65,9.49-24.35l.77-1.83,35.83-77.48h36Z"/><path class="cls-1" d="M663.09,301.32V87.88h33.23v23.74a43.83,43.83,0,0,1,18.6-21.29q12.78-7.5,30.55-7.5,28.93,0,46.93,21.36t18,56.11q0,36.6-17.69,57.65T744.24,239q-15.32,0-27.18-6.12T696.32,214.2v87.12ZM695.25,160q0,22.5,11.25,36t29.63,13.47q18.82,0,29.16-12.55t10.34-35.68q0-23-10.79-35.9t-29.63-12.94q-18.84,0-29.4,12.56T695.25,160Z"/><path class="cls-1" d="M1017.69,25.11a19.79,19.79,0,0,1,6.2-14.55,20.32,20.32,0,0,1,14.78-6.12,20.15,20.15,0,0,1,20.67,20.67,20.42,20.42,0,0,1-6,14.93,19.86,19.86,0,0,1-14.7,6.05,20.2,20.2,0,0,1-14.78-6.2A20.2,20.2,0,0,1,1017.69,25.11ZM1022.13,233V87.88h33.23V233Z"/><path class="cls-1" d="M1102.82,233V87.88h31.24v23.74q9.95-15,23.42-21.9t32.77-6.89q16.21,0,27.63,5.13a40.12,40.12,0,0,1,17.84,15.23,41.55,41.55,0,0,1,5.51,13.94q1.68,8,1.69,27.86v88h-33.53V158.47q0-28.64-7-38T1177.69,111a48.09,48.09,0,0,0-20.74,4.29,34.31,34.31,0,0,0-14.32,12.1,33,33,0,0,0-5.13,13.39q-1.45,8.19-1.45,26.11V233Z"/><path class="cls-1" d="M1295,233V117h-25.41V87.88H1295v-55h33.23v55H1400L1372.79,117H1328.2V233Z"/><rect class="cls-2" x="908.39" y="219.66" width="3.54" height="7.09"/><rect class="cls-2" x="937.76" y="211.79" width="3.54" height="7.09" transform="translate(18.21 498.62) rotate(-30)"/><rect class="cls-2" x="959.27" y="190.28" width="3.54" height="7.09" transform="translate(312.66 929.2) rotate(-60)"/><rect class="cls-2" x="967.14" y="160.9" width="3.54" height="7.09" transform="translate(804.47 1133.35) rotate(-90)"/><rect class="cls-2" x="959.26" y="131.52" width="3.54" height="7.09" transform="translate(1324.58 1034.88) rotate(-120)"/><rect class="cls-2" x="937.75" y="110.02" width="3.54" height="7.09" transform="translate(1696.4 681.67) rotate(-150)"/><rect class="cls-2" x="908.37" y="102.15" width="3.54" height="7.09" transform="translate(1820.29 211.38) rotate(-180)"/><rect class="cls-2" x="879" y="110.02" width="3.54" height="7.09" transform="translate(1700.32 -228.47) rotate(150)"/><rect class="cls-2" x="857.49" y="131.53" width="3.54" height="7.09" transform="translate(1405.88 -541.53) rotate(120)"/><rect class="cls-2" x="849.62" y="160.91" width="3.54" height="7.09" transform="translate(1015.85 -686.94) rotate(90)"/><rect class="cls-2" x="857.5" y="190.29" width="3.54" height="7.09" transform="translate(597.5 -647.23) rotate(60)"/><rect class="cls-2" x="879.01" y="211.79" width="3.54" height="7.09" transform="translate(225.67 -411.54) rotate(30)"/><path class="cls-2" d="M977.1,136.24c-3.68-8.69-4.41-34.9-4.41-34.9s-25.56-.08-34.25-3.76a72.89,72.89,0,0,0-56.56,0c-8.69,3.68-33.65,5.77-33.65,5.77s-1.34,24.2-5,32.89a72.89,72.89,0,0,0,0,56.56c3.67,8.69,4.6,34.7,4.6,34.7s25.37.28,34.06,4a72.89,72.89,0,0,0,56.56,0c8.69-3.68,34.08-4.58,34.08-4.58s.9-25.39,4.58-34.08a72.89,72.89,0,0,0,0-56.56Zm-67,90.41a62.2,62.2,0,1,1,62.21-62.2A62.2,62.2,0,0,1,910.15,226.65Z"/><polygon class="cls-3" points="920.98 175.28 945.11 129.49 910.15 164.45 920.98 175.28"/><polygon class="cls-4" points="920.98 175.28 875.2 199.4 910.15 164.45 920.98 175.28"/><polygon class="cls-1" points="899.33 153.62 945.11 129.49 910.15 164.45 899.33 153.62"/><polygon class="cls-5" points="899.33 153.62 875.2 199.4 910.15 164.45 899.33 153.62"/></g></g></svg>